<mxfile host="65bd71144e">
    <diagram id="ldmQoCzLB_vpC_Um2jJf" name="Page-1">
        <mxGraphModel dx="2452" dy="1623" grid="1" gridSize="10" guides="1" tooltips="1" connect="1" arrows="1" fold="1" page="1" pageScale="1" pageWidth="827" pageHeight="1169" math="0" shadow="0">
            <root>
                <mxCell id="0"/>
                <mxCell id="1" parent="0"/>
                <mxCell id="24" value="" style="rounded=0;whiteSpace=wrap;html=1;" parent="1" vertex="1">
                    <mxGeometry x="-310" y="-90" width="1590" height="930" as="geometry"/>
                </mxCell>
                <mxCell id="2" value="1" style="rounded=0;whiteSpace=wrap;html=1;" parent="1" vertex="1">
                    <mxGeometry x="290" y="790" width="300" height="30" as="geometry"/>
                </mxCell>
                <mxCell id="3" value="2" style="rounded=0;whiteSpace=wrap;html=1;" parent="1" vertex="1">
                    <mxGeometry x="630" y="790" width="300" height="30" as="geometry"/>
                </mxCell>
                <mxCell id="4" value="pet" style="rounded=0;whiteSpace=wrap;html=1;" parent="1" vertex="1">
                    <mxGeometry x="54" y="715" width="140" height="20" as="geometry"/>
                </mxCell>
                <mxCell id="5" value="&lt;span style=&quot;font-family: &amp;#34;helvetica&amp;#34;&quot;&gt;3 right bar&lt;/span&gt;" style="rounded=0;whiteSpace=wrap;html=1;" parent="1" vertex="1">
                    <mxGeometry x="-30" y="790" width="300" height="30" as="geometry"/>
                </mxCell>
                <mxCell id="9" value="玩家" style="rounded=0;whiteSpace=wrap;html=1;" parent="1" vertex="1">
                    <mxGeometry x="110" y="520" width="180" height="50" as="geometry"/>
                </mxCell>
                <mxCell id="10" value="目标" style="rounded=0;whiteSpace=wrap;html=1;" parent="1" vertex="1">
                    <mxGeometry x="640" y="520" width="180" height="50" as="geometry"/>
                </mxCell>
                <mxCell id="11" value="目标的目标" style="rounded=0;whiteSpace=wrap;html=1;" parent="1" vertex="1">
                    <mxGeometry x="790" y="575" width="110" height="20" as="geometry"/>
                </mxCell>
                <mxCell id="12" value="debuff" style="rounded=0;whiteSpace=wrap;html=1;" parent="1" vertex="1">
                    <mxGeometry x="750" y="480" width="180" height="20" as="geometry"/>
                </mxCell>
                <mxCell id="14" value="7" style="rounded=0;whiteSpace=wrap;html=1;" parent="1" vertex="1">
                    <mxGeometry x="110" y="580" width="180" height="70" as="geometry"/>
                </mxCell>
                <mxCell id="15" value="4 right bar 2" style="rounded=0;whiteSpace=wrap;html=1;" parent="1" vertex="1">
                    <mxGeometry x="795" y="950" width="50" height="170" as="geometry"/>
                </mxCell>
                <mxCell id="17" value="光环/宠物" style="rounded=0;whiteSpace=wrap;html=1;" parent="1" vertex="1">
                    <mxGeometry x="-90" y="650" width="50" height="170" as="geometry"/>
                </mxCell>
                <mxCell id="19" value="聊天" style="rounded=0;whiteSpace=wrap;html=1;" parent="1" vertex="1">
                    <mxGeometry x="-290" y="650" width="180" height="170" as="geometry"/>
                </mxCell>
                <mxCell id="20" value="仇恨？" style="rounded=0;whiteSpace=wrap;html=1;" parent="1" vertex="1">
                    <mxGeometry x="970" y="460" width="290" height="170" as="geometry"/>
                </mxCell>
                <mxCell id="21" value="dps" style="rounded=0;whiteSpace=wrap;html=1;" parent="1" vertex="1">
                    <mxGeometry x="1130" y="640" width="130" height="170" as="geometry"/>
                </mxCell>
                <mxCell id="23" value="wa" style="rounded=0;whiteSpace=wrap;html=1;" parent="1" vertex="1">
                    <mxGeometry x="-40" y="575" width="112" height="80" as="geometry"/>
                </mxCell>
                <mxCell id="25" value="团队框架" style="rounded=0;whiteSpace=wrap;html=1;" parent="1" vertex="1">
                    <mxGeometry x="194" y="1190" width="556" height="210" as="geometry"/>
                </mxCell>
                <mxCell id="26" value="饰品队列" style="rounded=0;whiteSpace=wrap;html=1;" parent="1" vertex="1">
                    <mxGeometry x="110" y="480" width="180" height="20" as="geometry"/>
                </mxCell>
                <mxCell id="29" value="磨刀石之类的" style="rounded=0;whiteSpace=wrap;html=1;" parent="1" vertex="1">
                    <mxGeometry x="790" y="620" width="110" height="80" as="geometry"/>
                </mxCell>
                <mxCell id="30" value="dps" style="rounded=0;whiteSpace=wrap;html=1;" parent="1" vertex="1">
                    <mxGeometry x="980" y="650" width="130" height="170" as="geometry"/>
                </mxCell>
                <mxCell id="31" value="wa" style="rounded=0;whiteSpace=wrap;html=1;" parent="1" vertex="1">
                    <mxGeometry x="310" y="400" width="310" height="90" as="geometry"/>
                </mxCell>
                <mxCell id="32" value="dbm" style="rounded=0;whiteSpace=wrap;html=1;" parent="1" vertex="1">
                    <mxGeometry x="-5" y="90" width="150" height="250" as="geometry"/>
                </mxCell>
                <mxCell id="33" value="人物栏" style="rounded=0;whiteSpace=wrap;html=1;" parent="1" vertex="1">
                    <mxGeometry x="-300" y="-80" width="150" height="30" as="geometry"/>
                </mxCell>
                <mxCell id="34" value="团队监视wa" style="rounded=0;whiteSpace=wrap;html=1;" parent="1" vertex="1">
                    <mxGeometry x="-290" y="200" width="150" height="250" as="geometry"/>
                </mxCell>
                <mxCell id="35" value="额外按键" style="rounded=0;whiteSpace=wrap;html=1;" parent="1" vertex="1">
                    <mxGeometry x="-290" y="470" width="230" height="150" as="geometry"/>
                </mxCell>
                <mxCell id="38" value="监视队友" style="rounded=0;whiteSpace=wrap;html=1;" parent="1" vertex="1">
                    <mxGeometry x="1091" y="130" width="150" height="250" as="geometry"/>
                </mxCell>
                <mxCell id="39" value="地图" style="rounded=0;whiteSpace=wrap;html=1;" parent="1" vertex="1">
                    <mxGeometry x="1036" y="-80" width="214" height="170" as="geometry"/>
                </mxCell>
                <mxCell id="40" value="施法队列" style="rounded=0;whiteSpace=wrap;html=1;" parent="1" vertex="1">
                    <mxGeometry x="1101" y="395" width="130" height="20" as="geometry"/>
                </mxCell>
                <mxCell id="41" value="wa" style="rounded=0;whiteSpace=wrap;html=1;" parent="1" vertex="1">
                    <mxGeometry x="700" y="180" width="240" height="90" as="geometry"/>
                </mxCell>
                <mxCell id="43" value="玩家" style="rounded=0;whiteSpace=wrap;html=1;" parent="1" vertex="1">
                    <mxGeometry x="190" y="970" width="180" height="50" as="geometry"/>
                </mxCell>
                <mxCell id="44" value="目标" style="rounded=0;whiteSpace=wrap;html=1;" parent="1" vertex="1">
                    <mxGeometry x="580" y="970" width="180" height="50" as="geometry"/>
                </mxCell>
                <mxCell id="45" value="4 right bar 2" style="rounded=0;whiteSpace=wrap;html=1;" parent="1" vertex="1">
                    <mxGeometry x="-30" y="750" width="300" height="30" as="geometry"/>
                </mxCell>
                <mxCell id="46" value="5 bottom right bar" style="rounded=0;whiteSpace=wrap;html=1;" parent="1" vertex="1">
                    <mxGeometry x="620" y="750" width="300" height="30" as="geometry"/>
                </mxCell>
                <mxCell id="47" value="6 bottom left bar" style="rounded=0;whiteSpace=wrap;html=1;" parent="1" vertex="1">
                    <mxGeometry x="350" y="750" width="300" height="30" as="geometry"/>
                </mxCell>
            </root>
        </mxGraphModel>
    </diagram>
</mxfile>